<?xml version="1.0" encoding="UTF-8" standalone="no"?><svg xmlns="http://www.w3.org/2000/svg" xmlns:xlink="http://www.w3.org/1999/xlink" contentScriptType="application/ecmascript" contentStyleType="text/css" height="230px" preserveAspectRatio="none" style="width:165px;height:230px;" version="1.1" viewBox="0 0 165 230" width="165px" zoomAndPan="magnify"><defs><filter height="300%" id="f120iiwox7rt02" width="300%" x="-1" y="-1"><feGaussianBlur result="blurOut" stdDeviation="2.0"/><feColorMatrix in="blurOut" result="blurOut2" type="matrix" values="0 0 0 0 0 0 0 0 0 0 0 0 0 0 0 0 0 0 .4 0"/><feOffset dx="4.0" dy="4.0" in="blurOut2" result="blurOut3"/><feBlend in="SourceGraphic" in2="blurOut3" mode="normal"/></filter></defs><g><!--class Stage--><rect fill="#FEFECE" filter="url(#f120iiwox7rt02)" height="48" id="Stage" style="stroke: #A80036; stroke-width: 1.5;" width="64" x="48" y="8"/><ellipse cx="63" cy="24" fill="#ADD1B2" rx="11" ry="11" style="stroke: #A80036; stroke-width: 1.0;"/><path d="M65.7656,19.875 Q65.9219,19.6563 66.1094,19.5469 Q66.2969,19.4375 66.5156,19.4375 Q66.8906,19.4375 67.125,19.6953 Q67.3594,19.9531 67.3594,20.5625 L67.3594,22.0156 Q67.3594,22.625 67.125,22.8906 Q66.8906,23.1563 66.5156,23.1563 Q66.1719,23.1563 65.9688,22.9531 Q65.7656,22.7656 65.6563,22.25 Q65.6094,21.8906 65.4219,21.7031 Q65.0938,21.3281 64.4844,21.1094 Q63.875,20.8906 63.25,20.8906 Q62.4844,20.8906 61.8516,21.2188 Q61.2188,21.5469 60.7266,22.2969 Q60.2344,23.0469 60.2344,24.0781 L60.2344,25.1719 Q60.2344,26.4063 61.125,27.2266 Q62.0156,28.0469 63.6094,28.0469 Q64.5469,28.0469 65.2031,27.7969 Q65.5938,27.6406 66.0156,27.2031 Q66.2813,26.9375 66.4297,26.8594 Q66.5781,26.7813 66.7813,26.7813 Q67.1094,26.7813 67.3672,27.0391 Q67.625,27.2969 67.625,27.6406 Q67.625,27.9844 67.2813,28.3906 Q66.7813,28.9688 65.9844,29.2969 Q64.9063,29.75 63.6094,29.75 Q62.0938,29.75 60.8906,29.125 Q59.9063,28.625 59.2188,27.5547 Q58.5313,26.4844 58.5313,25.2031 L58.5313,24.0469 Q58.5313,22.7188 59.1484,21.5703 Q59.7656,20.4219 60.8594,19.8047 Q61.9531,19.1875 63.1875,19.1875 Q63.9219,19.1875 64.5703,19.3516 Q65.2188,19.5156 65.7656,19.875 Z "/><text fill="#000000" font-family="sans-serif" font-size="12" lengthAdjust="spacingAndGlyphs" textLength="32" x="77" y="28.9102">Stage</text><line style="stroke: #A80036; stroke-width: 1.5;" x1="49" x2="111" y1="40" y2="40"/><line style="stroke: #A80036; stroke-width: 1.5;" x1="49" x2="111" y1="48" y2="48"/><!--class Timeout--><rect fill="#FEFECE" filter="url(#f120iiwox7rt02)" height="103.3438" id="Timeout" style="stroke: #A80036; stroke-width: 1.5;" width="148" x="6" y="116"/><ellipse cx="53.25" cy="132" fill="#ADD1B2" rx="11" ry="11" style="stroke: #A80036; stroke-width: 1.0;"/><path d="M56.0156,127.875 Q56.1719,127.6563 56.3594,127.5469 Q56.5469,127.4375 56.7656,127.4375 Q57.1406,127.4375 57.375,127.6953 Q57.6094,127.9531 57.6094,128.5625 L57.6094,130.0156 Q57.6094,130.625 57.375,130.8906 Q57.1406,131.1563 56.7656,131.1563 Q56.4219,131.1563 56.2188,130.9531 Q56.0156,130.7656 55.9063,130.25 Q55.8594,129.8906 55.6719,129.7031 Q55.3438,129.3281 54.7344,129.1094 Q54.125,128.8906 53.5,128.8906 Q52.7344,128.8906 52.1016,129.2188 Q51.4688,129.5469 50.9766,130.2969 Q50.4844,131.0469 50.4844,132.0781 L50.4844,133.1719 Q50.4844,134.4063 51.375,135.2266 Q52.2656,136.0469 53.8594,136.0469 Q54.7969,136.0469 55.4531,135.7969 Q55.8438,135.6406 56.2656,135.2031 Q56.5313,134.9375 56.6797,134.8594 Q56.8281,134.7813 57.0313,134.7813 Q57.3594,134.7813 57.6172,135.0391 Q57.875,135.2969 57.875,135.6406 Q57.875,135.9844 57.5313,136.3906 Q57.0313,136.9688 56.2344,137.2969 Q55.1563,137.75 53.8594,137.75 Q52.3438,137.75 51.1406,137.125 Q50.1563,136.625 49.4688,135.5547 Q48.7813,134.4844 48.7813,133.2031 L48.7813,132.0469 Q48.7813,130.7188 49.3984,129.5703 Q50.0156,128.4219 51.1094,127.8047 Q52.2031,127.1875 53.4375,127.1875 Q54.1719,127.1875 54.8203,127.3516 Q55.4688,127.5156 56.0156,127.875 Z "/><text fill="#000000" font-family="sans-serif" font-size="12" lengthAdjust="spacingAndGlyphs" textLength="45" x="73.75" y="136.9102">Timeout</text><line style="stroke: #A80036; stroke-width: 1.5;" x1="7" x2="153" y1="148" y2="148"/><ellipse cx="17" cy="160.418" fill="none" rx="3" ry="3" style="stroke: #038048; stroke-width: 1.0;"/><text fill="#000000" font-family="sans-serif" font-size="11" lengthAdjust="spacingAndGlyphs" textLength="61" x="26" y="163.4189">stage: Stage</text><line style="stroke: #A80036; stroke-width: 1.5;" x1="7" x2="153" y1="169.8359" y2="169.8359"/><ellipse cx="17" cy="182.2539" fill="#84BE84" rx="3" ry="3" style="stroke: #038048; stroke-width: 1.0;"/><text fill="#000000" font-family="sans-serif" font-size="11" lengthAdjust="spacingAndGlyphs" textLength="122" x="26" y="185.2549">constructor:function(cfg)</text><ellipse cx="17" cy="196.0898" fill="#84BE84" rx="3" ry="3" style="stroke: #038048; stroke-width: 1.0;"/><text fill="#000000" font-family="sans-serif" font-size="11" lengthAdjust="spacingAndGlyphs" textLength="99" x="26" y="199.0908">timeout:function(ctx)</text><ellipse cx="17" cy="209.9258" fill="#84BE84" rx="3" ry="3" style="stroke: #038048; stroke-width: 1.0;"/><text fill="#000000" font-family="sans-serif" font-size="11" lengthAdjust="spacingAndGlyphs" textLength="105" x="26" y="212.9268">overdue:function(ctx)</text><!--link Stage to Timeout--><path d="M80,76.463 C80,89.043 80,102.885 80,115.863 " fill="none" id="Stage-Timeout" style="stroke: #A80036; stroke-width: 1.0;"/><polygon fill="none" points="73.0001,76.254,80,56.254,87.0001,76.254,73.0001,76.254" style="stroke: #A80036; stroke-width: 1.0;"/><!--
@startuml

    Class Stage
    Class Timeout {
        +constructor:function(cfg)
        +timeout:function(ctx)
        +overdue:function(ctx)
        +stage: Stage
    }
     Stage <|- - Timeout

@enduml

PlantUML version 1.2018.02(Fri Mar 09 18:20:44 CET 2018)
(GPL source distribution)
Java Runtime: Java(TM) SE Runtime Environment
JVM: Java HotSpot(TM) 64-Bit Server VM
Java Version: 1.8.0_171-b11
Operating System: Windows 10
OS Version: 10.0
Default Encoding: Cp1252
Language: en
Country: GB
--></g></svg>